<?xml version="1.0" encoding="utf-8"?>
<!-- Generator: Adobe Illustrator 21.1.0, SVG Export Plug-In . SVG Version: 6.00 Build 0)  -->
<svg version="1.1" id="Capa_1" xmlns="http://www.w3.org/2000/svg" xmlns:xlink="http://www.w3.org/1999/xlink" x="0px" y="0px"
	 viewBox="0 0 283.5 283.5" style="enable-background:new 0 0 283.5 283.5;" xml:space="preserve">
<style type="text/css">
	.st0{fill:#1D1D1B;}
	.st1{fill:#FFFFFF;}
</style>
<circle class="st0" cx="143.9" cy="141.7" r="119.1"/>
<g>
	<g id="g16699_13_" transform="matrix(2.7633305e-2,0,0,-2.7633305e-2,212.61065,393.41929)">
		<path id="path16701_13_" class="st1" d="M-1394.8,8552.8c0-234.8,39.7-412.6,119.1-533.5c79.4-120.9,176.1-202,290.1-243.4
			s303.9-68.2,569.8-80.3c295.2-12.1,514.5-77.7,657.8-196.8s215.8-316.8,217.5-593.1h-98.4c-6.9,98.4-44.9,164.9-114,199.4
			c-69.1,34.5-217.5,52.7-445.5,54.4c-331.5,0-587,34.5-766.6,103.6c-179.6,69.1-326.3,209.8-440.3,422.1
			c-114,212.4-174.4,501.6-181.3,867.6V9050c8.6,371.2,68.2,659.5,178.7,865s254.7,344.4,432.5,417s437.7,109.6,779.5,111.4
			c217.5,0,361.7,16.4,432.5,49.2s112.2,101,124.3,204.6h98.4c-3.5-174.4-31.1-315.1-82.9-422.1s-143.3-192.5-274.5-256.4
			s-303.9-101-518-111.4c-264.2-12.1-453.2-37.1-567.2-75.1s-210.6-120-290.1-246c-79.4-126-120-304.7-121.7-536.1V8552.8z"/>
	</g>
	<g id="g16699_12_" transform="matrix(2.7633305e-2,0,0,-2.7633305e-2,212.61065,393.41929)">
		<path id="path16701_12_" class="st1" d="M-1958.3,8616.4c-132.6,0-134.8,405.8,0,405.8h1405.4c132.6,0,218.1,9.2,256.6,27.5
			c38.5,18.3,69.7,58.5,93.5,120.5s35.7,157.1,35.7,285.3h62.9V8183.1h-62.9c-1.1,129.6-12.5,224.7-34,285.3
			c-21.5,60.6-52.7,100-93.5,118.4c-40.8,18.3-126.9,28.2-258.3,29.6H-1958.3z"/>
	</g>
</g>
<g>
	<path class="st1" d="M132.7,60.7c-12.4,0-21,6.4-25.8,19.2c-3.8,9-5.7,22.4-5.7,40c0,3.9,0.2,9.5,0.7,16.7c0.1,3.3,0.2,6.1,0.2,8.4
		c0,2.3,0,4.1,0,5.4c2.4,1.8,8.2,5.7,10.2,7.5c16.9-1.4,30.4-6.3,40.5-14.7c11.3-9.5,17-22.4,17-38.7c0-11.5-3.2-21.4-9.7-29.8
		C153,65.4,143.9,60.7,132.7,60.7z M140.6,133.3c-6.9,9.3-16.4,15.2-28.3,17.6c-0.1-1.8-0.3-4-0.3-6.7c-0.1-2.6-0.1-5.6-0.1-8.9
		c0-0.5,0-1.3,0-2.6c0-1.3-0.1-2.9-0.2-4.9c0-2,0-3.8,0-5.4s0-3.2,0-4.5c0-32.1,6.5-48.2,19.4-48.2c6.8,0,11.8,3.8,15.2,11.5
		c2.7,5.9,4.1,12.5,4.1,19.9C150.3,113.9,147.1,124.6,140.6,133.3z"/>
	<g id="g16699_5_" transform="matrix(2.7633305e-2,0,0,-2.7633305e-2,212.61065,393.41929)">
		<path id="path16701_5_" class="st1" d="M-3954.4,8764.5c-244,0-418.8-2.4-544.4,80.3s-209.9,183.3-252.9,302
			c-43.1,118.6-70.9,316.3-83.4,593.1c-12.6,307.4-80.7,535.6-204.5,684.8c-123.8,149.2-329.2,224.7-616.2,226.5v-102.5
			c102.3-7.2,171.3-46.7,207.2-118.6s54.7-226.5,56.5-463.7c0-345.1,35.9-611.1,107.6-798c71.8-186.9,218-339.7,438.6-458.3
			c220.6-118.6,521.1-181.5,901.4-188.7L-3954.4,8764.5z"/>
	</g>
	<g id="g16699_4_" transform="matrix(2.7633305e-2,0,0,-2.7633305e-2,212.61065,393.41929)">
		<path id="path16701_4_" class="st1" d="M-4000.7,8747.4c0,128.6,389.3,130.8,389.3,0V7384.1c0-128.6,8.8-211.6,26.4-248.9
			s56.1-67.6,115.6-90.7c59.5-23.1,150.7-34.6,273.8-34.6v-105.3h-1220.8v105.3c124.4,1.1,215.6,12.1,273.8,33
			c58.1,20.9,96,51.1,113.6,90.7c17.6,39.6,27,123.1,28.4,250.6V8747.4z"/>
	</g>
	<polygon class="st1" points="102.2,149 102.2,151.4 103.2,151.4 103.1,149.4 	"/>
</g>
</svg>
